<?xml version="1.0" encoding="utf-8"?>
<svg version="1.1" id="Layer_1" xmlns="http://www.w3.org/2000/svg" xmlns:xlink="http://www.w3.org/1999/xlink" x="0px" y="0px" viewBox="0 0 21 63.5" enable-background="new 0 0 21 63.5" xml:space="preserve">
    <path fill="#636464" d="M10.6,24.2c-4.2,0-7.7,3.4-7.7,7.7s3.4,7.7,7.7,7.7s7.7-3.4,7.7-7.7S14.8,24.2,10.6,24.2z M10.6,38.5c-3.7,0-6.7-3-6.7-6.7c0-3.6,2.9-6.6,6.5-6.7v6.7l5-4.6c1.1,1.2,1.8,2.8,1.8,4.6C17.2,35.5,14.2,38.5,10.6,38.5z"/>
    <path fill="#636464" d="M13,7.3c0.5-0.6,0.8-1.5,0.6-2.4c-0.2-1.3-1.2-2.3-2.5-2.5c-1.9-0.3-3.6,1.1-3.6,3c0,0.7,0.3,1.4,0.7,1.9c0.4,0.5,0.2,1.3-0.5,1.5C5.8,9.5,4.8,10.9,4.8,12c0,1.5,3,5.4,5.8,5.4c2.7,0,5.8-3.9,5.8-5.4c0-1.2-1.1-2.5-2.9-3.2C12.7,8.6,12.5,7.8,13,7.3z"/>
    <g>
    	<g>
    		<path fill="#636464" d="M14.8,46.6v11.5H6.3V46.6H14.8 M15.8,45.6H5.3v13.5h10.5V45.6L15.8,45.6z"/>
    	</g>
    	<g>
    		<line fill="none" stroke="#636464" stroke-miterlimit="10" x1="8.4" y1="49" x2="12.8" y2="49"/>
    		<line fill="none" stroke="#636464" stroke-miterlimit="10" x1="8.4" y1="53.5" x2="12.8" y2="53.5"/>
    		<line fill="none" stroke="#636464" stroke-miterlimit="10" x1="8.4" y1="55.8" x2="12.8" y2="55.8"/>
    		<line fill="none" stroke="#636464" stroke-miterlimit="10" x1="8.4" y1="51.3" x2="12.8" y2="51.3"/>
    	</g>
    </g>
</svg>
